/* XPM */
static char * add_xpm[] = {
"32 32 95 2",
"  	c None",
". 	c #000000",
"+ 	c #303234",
"@ 	c #9CA3AA",
"# 	c #8F98A2",
"$ 	c #7B8590",
"% 	c #565E67",
"& 	c #313437",
"* 	c #C4D0DC",
"= 	c #A2B4C8",
"- 	c #879AAE",
"; 	c #596675",
"> 	c #2E3235",
", 	c #B9C6D5",
"' 	c #869EB8",
") 	c #6A829C",
"! 	c #465668",
"~ 	c #69819C",
"{ 	c #465667",
"] 	c #68809A",
"^ 	c #445364",
"/ 	c #282B30",
"( 	c #828D9A",
"_ 	c #798695",
": 	c #768494",
"< 	c #7F8EA0",
"[ 	c #9CAEC3",
"} 	c #7F98B3",
"| 	c #7790AC",
"1 	c #7A8EA5",
"2 	c #7C8897",
"3 	c #86919D",
"4 	c #89939F",
"5 	c #88939E",
"6 	c #7B8690",
"7 	c #586068",
"8 	c #2E3135",
"9 	c #B8C5D5",
"0 	c #95A9C0",
"a 	c #89A0BA",
"b 	c #889FB8",
"c 	c #849BB6",
"d 	c #7993B0",
"e 	c #7893B0",
"f 	c #8099B4",
"g 	c #8DA3BC",
"h 	c #94A9C0",
"i 	c #96AAC1",
"j 	c #96AAC0",
"k 	c #889BB0",
"l 	c #5C6977",
"m 	c #2C2F33",
"n 	c #B0BDCD",
"o 	c #8096AF",
"p 	c #6F89A5",
"q 	c #718BA7",
"r 	c #7590AE",
"s 	c #738EAC",
"t 	c #718CA9",
"u 	c #48596C",
"v 	c #1D2228",
"w 	c #7589A0",
"x 	c #647890",
"y 	c #5E738B",
"z 	c #647A94",
"A 	c #6E8AA8",
"B 	c #667F9C",
"C 	c #191E24",
"D 	c #181D23",
"E 	c #323C47",
"F 	c #829AB6",
"G 	c #7892B0",
"H 	c #6B849F",
"I 	c #4E6075",
"J 	c #12161A",
"K 	c #252A30",
"L 	c #94A8C0",
"M 	c #7D96B2",
"N 	c #2A2E32",
"O 	c #A7B7CA",
"P 	c #829AB5",
"Q 	c #B6C4D3",
"R 	c #859DB7",
"S 	c #2C3034",
"T 	c #B2C0CE",
"U 	c #8096B0",
"V 	c #657C95",
"W 	c #292C30",
"X 	c #A5B2C0",
"Y 	c #708398",
"Z 	c #566A80",
"` 	c #3A4857",
" .	c #1C2126",
"..	c #161A20",
"+.	c #0F1216",
"                                                                ",
"                                                                ",
"                                                                ",
"                                                                ",
"                                                                ",
"                                                                ",
"                            . . . .                             ",
"                          + @ # $ % .                           ",
"                        . & * = - ; .                           ",
"                        . > , ' ) ! .                           ",
"                        . > , ' ) ! .                           ",
"                        . > , ' ) ! .                           ",
"                        . > , ' ) ! .                           ",
"                        . > , ' ~ { .                           ",
"            . . . . . . . > , ' ] ^ . . . . . . . .             ",
"          / ( _ : : : : : < [ } | 1 2 3 4 5 5 5 6 7 .           ",
"        . 8 9 0 a a a a a b c d e f g h i j j j k l .           ",
"        . m n o p p p p p q r r s t p p p p p p ] u .           ",
"        . v w x y y y y y z r r A B y y y y y y y ! .           ",
"            v C D D D D D E F G H I D D D D D D D J .           ",
"            . . . . . . . K L M ) ! . . . . . . . . .           ",
"                        . N O P ) ! .                           ",
"                        . 8 Q R ) ! .                           ",
"                        . 8 Q R ) ! .                           ",
"                        . 8 Q R ) ! .                           ",
"                        . S T U V ^ .                           ",
"                        . W X Y Z ` .                           ",
"                            W  ...+..                           ",
"                            . . . . .                           ",
"                                                                ",
"                                                                ",
"                                                                "};
