/* XPM */
static char * change_number_xpm[] = {
"32 32 328 2",
"  	c None",
". 	c #000000",
"+ 	c #8F8F8F",
"@ 	c #BFBFBF",
"# 	c #AEAEAE",
"$ 	c #9C9C9C",
"% 	c #747474",
"& 	c #FFFFFF",
"* 	c #FEFEFE",
"= 	c #FDFDFD",
"- 	c #FCFCFC",
"; 	c #DCDCDC",
"> 	c #D8D8D8",
", 	c #BCBCBC",
"' 	c #545454",
") 	c #222222",
"! 	c #FAFAFA",
"~ 	c #F4F4F4",
"{ 	c #F8F8F8",
"] 	c #F9F9F9",
"^ 	c #F7F7F7",
"/ 	c #FBFBFB",
"( 	c #F9F9F8",
"_ 	c #CCCCCC",
": 	c #C9C9C9",
"< 	c #959595",
"[ 	c #313131",
"} 	c #0D0D0D",
"| 	c #ECECEC",
"1 	c #D4D4D4",
"2 	c #E4E4E4",
"3 	c #EAEAEA",
"4 	c #E7E7E7",
"5 	c #DEDEDE",
"6 	c #FAFAF9",
"7 	c #F7F7F6",
"8 	c #C0C0BF",
"9 	c #929292",
"0 	c #707070",
"a 	c #5D5D5D",
"b 	c #474747",
"c 	c #202020",
"d 	c #FBFBFA",
"e 	c #F6F6F5",
"f 	c #F5F5F4",
"g 	c #DDDDDD",
"h 	c #ABABAB",
"i 	c #757574",
"j 	c #50504E",
"k 	c #2C2C2C",
"l 	c #101010",
"m 	c #EEEEEE",
"n 	c #F0F0F0",
"o 	c #F1F1F1",
"p 	c #F2F2F2",
"q 	c #EBEBEA",
"r 	c #E2E2E2",
"s 	c #EDEDED",
"t 	c #F2F2F1",
"u 	c #E9E9E8",
"v 	c #D1D1D1",
"w 	c #B2B2B1",
"x 	c #9C9C9A",
"y 	c #6A6A6A",
"z 	c #2D2D2D",
"A 	c #E6E6E6",
"B 	c #E9E9E9",
"C 	c #F8F8F7",
"D 	c #E5E5E5",
"E 	c #E1E1E1",
"F 	c #D6D6D6",
"G 	c #EFEFEE",
"H 	c #EEEEED",
"I 	c #E2E2E1",
"J 	c #ECECEB",
"K 	c #EDEDEC",
"L 	c #ECECEA",
"M 	c #4F4F4F",
"N 	c #F4F4F3",
"O 	c #F1F1F0",
"P 	c #F0F0EF",
"Q 	c #EEEEEC",
"R 	c #EAEAE8",
"S 	c #B6B6B4",
"T 	c #525252",
"U 	c #C7C7C7",
"V 	c #626262",
"W 	c #404040",
"X 	c #6C6C6C",
"Y 	c #949494",
"Z 	c #3E3E3E",
"` 	c #8E8E8E",
" .	c #C6C6C5",
"..	c #E1E1E0",
"+.	c #DADAD9",
"@.	c #D9D9D9",
"#.	c #DCDCDB",
"$.	c #DEDEDC",
"%.	c #D9D9D8",
"&.	c #D6D6D5",
"*.	c #D8D8D6",
"=.	c #E8E8E6",
"-.	c #B5B5B4",
";.	c #D5D5D5",
">.	c #5A5A5A",
",.	c #767676",
"'.	c #363636",
").	c #E8E8E7",
"!.	c #1E1E1E",
"~.	c #787878",
"{.	c #545453",
"].	c #8A8A89",
"^.	c #D1D1D0",
"/.	c #E0E0DE",
"(.	c #DFDFDE",
"_.	c #E0E0DF",
":.	c #DBDBDA",
"<.	c #DCDCDA",
"[.	c #E6E6E4",
"}.	c #B4B4B3",
"|.	c #BEBEBE",
"1.	c #808080",
"2.	c #252525",
"3.	c #AFAFAE",
"4.	c #5C5C5C",
"5.	c #3C3C3C",
"6.	c #EFEFEF",
"7.	c #575756",
"8.	c #BCBCBA",
"9.	c #E6E6E5",
"0.	c #E4E4E3",
"a.	c #E2E2E0",
"b.	c #E4E4E2",
"c.	c #E5E5E3",
"d.	c #B3B3B2",
"e.	c #515151",
"f.	c #444444",
"g.	c #9A9A98",
"h.	c #CCCCCB",
"i.	c #D4D4D2",
"j.	c #D0D0CE",
"k.	c #C9C9C8",
"l.	c #C9C9C7",
"m.	c #DADAD8",
"n.	c #E3E3E1",
"o.	c #B2B2B2",
"p.	c #BBBBBB",
"q.	c #B3B3B3",
"r.	c #BABABA",
"s.	c #CECECE",
"t.	c #343434",
"u.	c #494948",
"v.	c #A5A5A4",
"w.	c #DDDDDB",
"x.	c #E0E0DD",
"y.	c #E1E1DE",
"z.	c #565655",
"A.	c #757575",
"B.	c #F5F5F5",
"C.	c #646464",
"D.	c #A8A8A7",
"E.	c #D9D9D7",
"F.	c #D6D6D4",
"G.	c #D7D7D5",
"H.	c #D5D5D2",
"I.	c #D6D6D3",
"J.	c #B2B2B0",
"K.	c #525251",
"L.	c #4B4B4A",
"M.	c #727272",
"N.	c #F3F3F3",
"O.	c #E8E8E8",
"P.	c #1D1D1D",
"Q.	c #606060",
"R.	c #8E8E8D",
"S.	c #B1B1B0",
"T.	c #DCDCD9",
"U.	c #D2D2D0",
"V.	c #CECECC",
"W.	c #D0D0CD",
"X.	c #CECECB",
"Y.	c #CFCFCC",
"Z.	c #B1B1AF",
"`.	c #AAAAAA",
" +	c #4A4A49",
".+	c #D2D2D2",
"++	c #747473",
"@+	c #9D9D9C",
"#+	c #B9B9B7",
"$+	c #DDDDDA",
"%+	c #DBDBD8",
"&+	c #DADAD7",
"*+	c #AEAEAD",
"=+	c #505050",
"-+	c #BBBBB9",
";+	c #EBEBEB",
">+	c #767674",
",+	c #A0A09F",
"'+	c #C1C1BF",
")+	c #E1E1DF",
"!+	c #C4C4C2",
"~+	c #C8C8C6",
"{+	c #C6C6C3",
"]+	c #CBCBC8",
"^+	c #D3D3D0",
"/+	c #D8D8D5",
"(+	c #515150",
"_+	c #686867",
":+	c #80807F",
"<+	c #AAAAA8",
"[+	c #CACAC8",
"}+	c #DFDFDC",
"|+	c #CDCDCA",
"1+	c #D6D6D2",
"2+	c #AFAFAD",
"3+	c #DADADA",
"4+	c #676767",
"5+	c #81817F",
"6+	c #ACACAA",
"7+	c #C6C6C4",
"8+	c #D3D3D1",
"9+	c #D2D2CE",
"0+	c #D4D4D0",
"a+	c #D5D5D1",
"b+	c #E5E5E4",
"c+	c #D5D5D3",
"d+	c #B0B0B0",
"e+	c #191918",
"f+	c #636362",
"g+	c #ABABA9",
"h+	c #B4B4B2",
"i+	c #D1D1CE",
"j+	c #BABAB8",
"k+	c #B6B6B3",
"l+	c #C0C0BC",
"m+	c #ADADAC",
"n+	c #4C4C4B",
"o+	c #D7D7D7",
"p+	c #5C5C5B",
"q+	c #888887",
"r+	c #CCCCC9",
"s+	c #CECECA",
"t+	c #D0D0CC",
"u+	c #F3F3F2",
"v+	c #C2C2C0",
"w+	c #979794",
"x+	c #C9C9C6",
"y+	c #D1D1CD",
"z+	c #ABABAA",
"A+	c #3C3C3B",
"B+	c #858582",
"C+	c #ABABA8",
"D+	c #B9B9B6",
"E+	c #BDBDBA",
"F+	c #CFCFCB",
"G+	c #CDCDC9",
"H+	c #CCCCC8",
"I+	c #878785",
"J+	c #A5A5A2",
"K+	c #C6C6C2",
"L+	c #CCCCC7",
"M+	c #F0F0EE",
"N+	c #A8A8A6",
"O+	c #141414",
"P+	c #545452",
"Q+	c #2B2B2A",
"R+	c #373737",
"S+	c #7C7C7A",
"T+	c #A2A29F",
"U+	c #C4C4C0",
"V+	c #EFEFED",
"W+	c #4C4C4C",
"X+	c #737372",
"Y+	c #1B1B1B",
"Z+	c #6C6C6B",
"`+	c #444443",
" @	c #464645",
".@	c #80807E",
"+@	c #B2B2AF",
"@@	c #CDCDC8",
"#@	c #B6B6B6",
"$@	c #C5C5C3",
"%@	c #A0A09E",
"&@	c #454544",
"*@	c #212121",
"=@	c #323231",
"-@	c #727271",
";@	c #939391",
">@	c #5F5F5E",
",@	c #222221",
"'@	c #242424",
")@	c #6E6E6C",
"!@	c #868682",
"~@	c #B6B6B2",
"{@	c #BABAB6",
"]@	c #BCBCB8",
"^@	c #BBBBB8",
"/@	c #BABAB5",
"(@	c #484847",
"_@	c #C0C0C0",
":@	c #848482",
"<@	c #737371",
"[@	c #7C7C79",
"}@	c #969694",
"|@	c #929290",
"1@	c #888886",
"2@	c #91918E",
"3@	c #6B6B68",
"4@	c #6C6C69",
"5@	c #7E7E7C",
"6@	c #8B8B89",
"7@	c #898989",
"8@	c #868684",
"9@	c #838380",
"0@	c #676766",
"a@	c #2E2E2E",
"b@	c #272727",
"c@	c #303030",
"d@	c #282828",
"e@	c #1D1D1C",
"f@	c #1F1F1E",
"g@	c #262625",
"h@	c #1B1B1A",
"i@	c #20201F",
"j@	c #232322",
"k@	c #212120",
"l@	c #1A1A19",
"m@	c #131312",
"                                                                ",
"                                                                ",
"    . . . . . . . . . . . . . . . . . . . . . . . .             ",
"    . + @ @ @ @ @ @ @ @ @ @ @ @ @ @ @ @ @ @ @ # $ % .           ",
"    . @ & & & & & & & & & & & & & & & * * = - ; > , ' )         ",
"    . @ * ! ~ { ! ] ^ = & & & & & * * = / ! ( _ _ : < [ }       ",
"    . @ ! | 1 2 3 4 5 ^ & & & & * = - ! 6 { 7 8 9 0 a b c .     ",
"    . @ * ! ~ { ! ] ^ = & & * = - d ! { ^ e f g h i j k l .     ",
"    . @ & / m n o o o o ^ / p m q 4 r s p t u u v w x y z .     ",
"    . @ & ] A B 3 3 3 B p C 3 D E ; F A G H I J H K L w M .     ",
"    . @ & & & & & * = - ! 6 { 7 e f N p O P G Q J L R S T .     ",
"    . @ & o U V W X p J Y Z Z `  ...+.@.#.$.%.&.*.$.=.-.T .     ",
"    . @ & ;.>.,.W '.@.).,.!.~.{.].^./.(._...$.:.<./.[.}.T .     ",
"    . @ * |.. @ 1.2.9 3.4.5.6.5.7.8.[.9.0.a...a.b.c.b.d.e..     ",
"    . @ = , . @ 1.. . . . 5.6.5.f.g.h.i.j.k.l.j.m.n.a.o.e..     ",
"    . @ - p.. @ @.q.q.q.q.r.s.t.u.v.a.I /.$.w.$.x.y./.w e..     ",
"    . @ / s.z.A.p.B.6.6.2 p.V Z C.D.$.b./.E.F.G.H.I.$.J.K..     ",
"    . @ ! A , L.M._ N.O.p.A.P.Q.R.S.G./.T.U.V.W.X.Y.T.Z.e..     ",
"    . @ ( p O `. +W & .+V P.++@+#+V.n.a././.$.$+T.%+&+*+=+.     ",
"    . @ C H A -+z.W & ;+M.P.>+,+'+G.)+W.!+'+~+{+]+^+/+3.(+.     ",
"    . @ 7 K =.F._+W & r X c :+<+[+<.}+^+]+~+|+]+X.^+1+2+(+.     ",
"    . @ e q [.<.X W & 3+4+c 5+6+7+i.%+I.8+U.W.9+0+a+^+*+(+.     ",
"    . @ ~ b+c+d+T W & N.~.e+f+g.g+h+i+'+8.j+k+l+]+U.i+m+=+.     ",
"    . @ N :.d.n+% _ N.o+d+% e+p+q+6+I.i+Y.X.r+s+t+W.t+6+=+.     ",
"    . @ u+v+' i p.B.6.5 @.p.V 5.p+w+v+{+7+x+9+y+t+X.s+6+=+.     ",
"    . @ t z+. @ @.q.q.q.q.r.s.t.A+B+C+D+E+'+t+F+s+G+H+6+(+.     ",
"    . @ n <+. @ 1.. . . . 5.6.5.Z I+J+K+t+Y.s+H+H+L+L+6+(+.     ",
"    . @ M+N+. @ 1.O+j P+Q+5.6.5.R+S+T+U+s+G+H+L+L+L+L+g+=+.     ",
"    . @ V+j+W+X+W Y+Z+5+`+!.~. @K..@+@K+@@H+L+L+L+L+L+g+=+.     ",
"    . #@n.$@%@&@*@=@-@;@>@,@'@z.)@!@~@{@]@]@^@^@{@/@{@g.(@.     ",
"    . $ _@J.}.%@:@<@[@}@|@1@2@3@4@5@6@6@6@].7@7@8@9@:@0@a@.     ",
"    . b@c@k z d@*@e@f@g@'@,@'@h@h@i@j@j@j@j@) ) ,@k@k@l@m@      "};
