/* XPM */
static char * delete_xpm[] = {
"32 32 74 1",
" 	c None",
".	c #000000",
"+	c #542F32",
"@	c #592A2E",
"#	c #441A1D",
"$	c #240E10",
"%	c #5A2227",
"&	c #904A50",
"*	c #B25058",
"=	c #7B2E35",
"-	c #261214",
";	c #512226",
">	c #B5444E",
",	c #2D1114",
"'	c #88333A",
")	c #5E2D31",
"!	c #BB545D",
"~	c #2A1012",
"{	c #712A31",
"]	c #A63E47",
"^	c #772D33",
"/	c #250E10",
"(	c #71363B",
"_	c #A2464E",
":	c #AC444D",
"<	c #8A333A",
"[	c #220D0F",
"}	c #B2434D",
"|	c #AA4049",
"1	c #AD464E",
"2	c #3E161A",
"3	c #19090A",
"4	c #4E1D21",
"5	c #93373F",
"6	c #4F1E22",
"7	c #B24750",
"8	c #8C343C",
"9	c #541F24",
"0	c #A43E46",
"a	c #501E22",
"b	c #4B1C20",
"c	c #200C0E",
"d	c #3F1E21",
"e	c #743338",
"f	c #9E3C44",
"g	c #2C1517",
"h	c #75363B",
"i	c #BA5059",
"j	c #8E444A",
"k	c #B94F58",
"l	c #AD4851",
"m	c #A7414A",
"n	c #7C2E35",
"o	c #A23D46",
"p	c #69272D",
"q	c #412427",
"r	c #783D42",
"s	c #732B32",
"t	c #3C161A",
"u	c #552024",
"v	c #A83F48",
"w	c #A03C45",
"x	c #280F11",
"y	c #603135",
"z	c #BB5A62",
"A	c #AB404A",
"B	c #792D34",
"C	c #87333A",
"D	c #230D0F",
"E	c #2B1012",
"F	c #291012",
"G	c #AD414A",
"H	c #582126",
"I	c #3C171A",
"                                ",
"                                ",
"                                ",
"                                ",
"                                ",
"                                ",
"                                ",
"           ...        .         ",
"          .+@#.      $%$        ",
"          .&*=.     -;>,.       ",
"          .'>'.    .)!>,.       ",
"           ~{]^/  .(_:<[.       ",
"           .%}|~.-)_1'23        ",
"           .45>6,;!789.         ",
"            .,>>>>>0a.          ",
"            .,>>>>>bc           ",
"            de>>>f%$            ",
"           ghi>>>'.             ",
"          .jk>>>>'.             ",
"         gjlmn,,{opc            ",
"        qrkmst..uvwx.           ",
"       .yzABt. .#C>bc           ",
"       .%A8D.   .,>0a.          ",
"        $ED     .F0GH.          ",
"         ..      caHI           ",
"                  ..            ",
"                                ",
"                                ",
"                                ",
"                                ",
"                                ",
"                                "};
