/* XPM */
static char * logo_48_xpm[] = {
"48 48 226 2",
"  	c None",
". 	c #000475",
"+ 	c #00017B",
"@ 	c #020185",
"# 	c #0B0096",
"$ 	c #0000B0",
"% 	c #000495",
"& 	c #120076",
"* 	c #000083",
"= 	c #000EA1",
"- 	c #0066D2",
"; 	c #0025CA",
"> 	c #00049F",
", 	c #00027C",
"' 	c #000A87",
") 	c #010D93",
"! 	c #04008D",
"~ 	c #00029E",
"{ 	c #00099A",
"] 	c #005CCF",
"^ 	c #004EDE",
"/ 	c #13007D",
"( 	c #0D1096",
"_ 	c #03037D",
": 	c #1700A9",
"< 	c #003CC7",
"[ 	c #1071D8",
"} 	c #0300BA",
"| 	c #00058C",
"1 	c #090287",
"2 	c #001799",
"3 	c #000FAB",
"4 	c #000797",
"5 	c #0913C3",
"6 	c #130391",
"7 	c #0026BA",
"8 	c #0097E1",
"9 	c #0016C8",
"0 	c #001AB1",
"a 	c #1300A0",
"b 	c #0007C4",
"c 	c #1391DC",
"d 	c #0031CC",
"e 	c #0031BC",
"f 	c #0B008F",
"g 	c #0001A7",
"h 	c #0B118F",
"i 	c #000990",
"j 	c #0066E0",
"k 	c #002BB1",
"l 	c #0214BA",
"m 	c #130099",
"n 	c #0022A2",
"o 	c #002DAB",
"p 	c #002DA4",
"q 	c #052EBC",
"r 	c #0007B9",
"s 	c #062DCB",
"t 	c #0405AB",
"u 	c #001AA8",
"v 	c #001FB7",
"w 	c #0518AB",
"x 	c #000BBC",
"y 	c #0003A9",
"z 	c #001FA5",
"A 	c #0E3AB1",
"B 	c #0C4EBD",
"C 	c #0057BE",
"D 	c #1447AF",
"E 	c #001993",
"F 	c #00119B",
"G 	c #3291DE",
"H 	c #001CC6",
"I 	c #0044CD",
"J 	c #0049C4",
"K 	c #0A4ECA",
"L 	c #0037BC",
"M 	c #000BB1",
"N 	c #0035AE",
"O 	c #0463CA",
"P 	c #0062CF",
"Q 	c #0054C9",
"R 	c #0E3ABF",
"S 	c #0013B0",
"T 	c #0502B3",
"U 	c #0075E2",
"V 	c #005FD3",
"W 	c #0084E3",
"X 	c #007FE4",
"Y 	c #0257DA",
"Z 	c #0937DC",
"` 	c #0911CB",
" .	c #000FB5",
"..	c #0047D9",
"+.	c #4AA5DB",
"@.	c #0D43D7",
"#.	c #0020CA",
"$.	c #0E01BD",
"%.	c #000CC8",
"&.	c #1600C7",
"*.	c #0008CF",
"=.	c #001DD1",
"-.	c #062CD3",
";.	c #0033D7",
">.	c #0052DC",
",.	c #0663D7",
"'.	c #3CAFE0",
").	c #8ED7E6",
"!.	c #35BBE4",
"~.	c #007BDA",
"{.	c #000FBF",
"].	c #0622BB",
"^.	c #005DD7",
"/.	c #28B1E1",
"(.	c #133ACF",
"_.	c #0028C5",
":.	c #0039D3",
"<.	c #003CCE",
"[.	c #0E39D6",
"}.	c #0018CB",
"|.	c #003FD9",
"1.	c #0085DD",
"2.	c #97DBE4",
"3.	c #3EC8E4",
"4.	c #0089DA",
"5.	c #008FE0",
"6.	c #006BD8",
"7.	c #0048CA",
"8.	c #002AB7",
"9.	c #0012A5",
"0.	c #001CBC",
"a.	c #2F92D8",
"b.	c #006EE0",
"c.	c #0019C2",
"d.	c #0020C1",
"e.	c #0E70DE",
"f.	c #4AC4E1",
"g.	c #AEDDE7",
"h.	c #6FD4E6",
"i.	c #1CA8DF",
"j.	c #0040CB",
"k.	c #0033C7",
"l.	c #0E4ED2",
"m.	c #0035C1",
"n.	c #0D18B5",
"o.	c #007AE0",
"p.	c #0052D4",
"q.	c #012CC2",
"r.	c #005EE0",
"s.	c #00B0E5",
"t.	c #64D6E6",
"u.	c #00A8E3",
"v.	c #15A3E0",
"w.	c #0056D2",
"x.	c #006DE1",
"y.	c #0638CC",
"z.	c #039DE1",
"A.	c #0077D6",
"B.	c #007CD9",
"C.	c #0006A1",
"D.	c #0036D2",
"E.	c #0016D3",
"F.	c #0DB6E5",
"G.	c #24C5E6",
"H.	c #0068DB",
"I.	c #0026B2",
"J.	c #0028D7",
"K.	c #003CBE",
"L.	c #0264C3",
"M.	c #0438B6",
"N.	c #002FD2",
"O.	c #00159F",
"P.	c #0015A9",
"Q.	c #2ACCE6",
"R.	c #0063E4",
"S.	c #0048D2",
"T.	c #0070D4",
"U.	c #003FBB",
"V.	c #004EC1",
"W.	c #0034B8",
"X.	c #001AD7",
"Y.	c #005BC8",
"Z.	c #067ED6",
"`.	c #1B84D7",
" +	c #44D1E6",
".+	c #0027DF",
"++	c #001EAD",
"@+	c #0030C3",
"#+	c #006ECD",
"$+	c #3AC2E4",
"%+	c #52CEE4",
"&+	c #0424AB",
"*+	c #082FB5",
"=+	c #002ABF",
"-+	c #0050CA",
";+	c #118EE0",
">+	c #008BE3",
",+	c #120AAE",
"'+	c #060C9C",
")+	c #0018A2",
"!+	c #024CC1",
"~+	c #0071E4",
"{+	c #0142C6",
"]+	c #006AD0",
"^+	c #0C0681",
"/+	c #0F44C1",
"(+	c #0028CE",
"_+	c #001DB5",
":+	c #0042B0",
"<+	c #0021B1",
"[+	c #1915CF",
"}+	c #1331BF",
"|+	c #1367C8",
"1+	c #1818C7",
"2+	c #0031DD",
"3+	c #0E4ED9",
"4+	c #0014DA",
"5+	c #0045DE",
"6+	c #101E98",
"7+	c #279CDB",
"8+	c #3B89DD",
"9+	c #7CC7E3",
"0+	c #44BBDF",
"a+	c #0F3AC7",
"b+	c #13BBE3",
"c+	c #155BCA",
". . . . . . . . + @ # $ % + . . . . . . + + + + . . . . . . & + * = - ; > * , , + + ' ) ! * + & ",
". . . . . . . . . * ~ $ ~ , & . . . . + . & + & & . . . . & + + , { ] ^ $ @ * * / / ( ~ % _ + . ",
". . . . . . . . . + # $ : * & . . & & + + , + + & & & & . + / / * ! < [ } | ' 1 * 2 3 # * + * + ",
". . . . . . . . . . 4 $ 5 @ , & & . + / _ / , + . . + + * + * * * 6 7 8 9 # ! | 2 0 a 1 * / + / ",
". . . . . . . . . . * $ b % , + * + * * * + , * * + + , * * 1 @ | | 0 c d ~ % % e $ f * 1 * | | ",
". . . . . . . . . . * g 9 % 1 + + * * , / * , + ' ' | ) ) 2 h 2 i 4 > - j g { k l m | | 4 { = 6 ",
". . . . . . . . . & + # 5 ~ ! * @ * * 1 | ) 2 n o p n n ) i | | f 4 # q c r 0 s t ~ u 7 v w = i ",
". . . . . . . . & + / 1 x y ! 4 4 ) z A B C D A E F 4 # ~ ~ m ~ ~ g $ 5 G H I 9 q J K L v M M y ",
". . . . . & / | * ! ! f M l 3 N O P Q R S M : T T $ T $ T } T r M $ } b U [ V W X Y Z ` b T $ y ",
". & & & & _ * + ! ! ~  ...+.j @.#.b $.$.} } $.b $.b %.&.*.` =.-.;...>.,.'.).!.~...-.b {.$ $ $ a ",
"_ ' @ @ @ @ m # ~ y T ].^./.(.{._.:.<.[._.H } $.} } r } $.} $.$.b }.|.1.).2.3.4.5.5.6.V 7.8.0 9.",
"+ ! % = g g m # { u 0 0.] a.b.0.M y $ r {.c.; ; d.d.l S M M $  ._...e.f.g.h.3.i.j._.k.l.Q I m.7 ",
"* f f ! 1 1 1 F z F n.4 o.4.|.p.0 ~ ~ ~ ~ ~ y $ $ M M M n.d.q.j.|.r.s.t.g.f.i.u.v.K l y > 3 7 7 ",
", + * 1 1 2 n h i 3 i k w.x.y.|.l.0 # % % f % # g g t M l ].; -.l.z.3.t.2.f.o.z.A.B.7.3 C.| | ! ",
"+ + + F u i * | = % * R Y >.K }.D.7.M ~ f f % ! # > M l {.5 E.:.o.F.G.t.).G.H.6.A.] H.O I.4 i @ ",
". ' F { ! ' | = i , 2 e ^.@.^.r J.d I S f 1 | # 3 3 9.M x 9 q.,.a.v.G.h.3.G.r...B.K.J ^.L.N = ! ",
"' ' , , f i 4 % * ' M.0.r.N.p.3 ` #.k.< O.{ = > P.y M r  .].K B.c v.Q.t.f.!.R.D.S.T.7 7.U.V.A ) ",
". . . * f ~ = * * | K.M r.J.d W.r X.=.k.L P.> > g T r  .7 I Y.Z.`.s.3. +F.s.b..+_.] J ++L W.M.A ",
". + + , % > % _ ' F k M >.}.{.U.t %.X.d.@+e S t t y 3 S m.J L.#+Z.s.$+%+v.z.~.E.; _.P I.z 8.7 &+",
". . + * | % f ! 1 *+F M ^ =.9 U.t $.` 5 d.0.d. .M 3 P.=+m.-+C P 1.i.!.$+;+>+1.E.H ,+R ] '+)+++u ",
"& & + * * 1 % i | W.%  .^ 9 9 L n.} $.%.{.9 d.7 S S 0.].M.Q !+] ;+v.s.!.X X >+=.9 M 9.J K.% z 9.",
"+ + * + + * m ~ P.n ~ l ..9 x q.7 T T b %.l d.].7 ].n.q R M.7.O 4.8 u.u.x.~+o.-.$. .i I.J z ! F ",
", ' + + + + % y I.) { l @.%.r c.q.T $ r b b l ].q.].0.q q q I P B.;+8 8 >.R.b.N.r  .4 F I.U.F | ",
"* / + * , * % M q | ~ r :.9 l {.D.} g T b {.0.q.d.q.q 7 ].q.I H.A.>+8 W |.r.j [.r M = % u W.u * ",
"' * . + , * % l 0.4 4 l N.b r {.; 5 g t b 9 9 c.d.d.q.].d.].{+P T.A.>+b.Z >.>.D.$ y 3 i F 0 I.( ",
"1 ' + * * _ 4  .l 3 > r N.b T b #.d.C.$ r 9 5 c.; ; c.d.d.d J Q #+]+`.w.#.>.:.[.M y 3 = % > )+z ",
"' | ' _ * _ F 3 $ 0.S l _.{.M } %._.3 {.9 b b {.c.; H 9 d.m.!+V.P P U ..#.^ J.[.r g 3 > ! | F z ",
"* h 2 E ^+* F 9.y {.l c._.b M b b ].3 c.l 9 b %.9 c.9 {.].K./+-+V.] V D.J...E.N. .y > 3 @ ' ) O.",
"! 1 F z E h F F ~ $.c.c._.5 $ b $.v l {.{.=.` b b {.; d.7 L U.-+J Q p.d (+|.E.s l $ g 4 ! 1 F 9.",
"~ f | F &+p z | %  .H 0.d.b {.b {.0.H x b b E.E.` {._+e 8.q M./+{+K I (+D.J.b N.c.M ~ % = i 9.)+",
"~ t y = u A :+2 = 3 }.d ].9 r &.{.c.d {.b $.` E.}.l 3 W.K.q e L < J k.; :.X.9 ; 0.g ~ 4 0 <+u F ",
"f ~ $ r  .q V.D z 0 }.<._.9 {.%.T #.N.[+} $.} x _.]. .0 J W.q e e 7.q.; [.` {.; 9 > 3 ++*+++i ! ",
"1 ! ~ r $.c.q C C I._.@.}+#.` %.$ #.E.` &.*.$ 3 n.@+q.0.++!+q q @+j._.k.J.9 H 9 0.S m.L w > % 4 ",
"* * | =  .%.9 < #+|+m...w.D.=.b 9 X.` *.r y S 3 y S @+< ].L /+7 q.m.d.l.b d.1+l <.K m.M y M C.i ",
"_ | | i P.l %.=.S.5.#+>.H.S.2+}.@.X.*.%.~ ! m C.l 0._+k.I 8.J e q._.d.3+` ; {.< P k.M M ,+F @ _ ",
"1 1 i = P.P._+#.J.r.v.Z.U r.[.J.Z 4+X.].)+u i 4 > S d.=+m.-+e -+7 ].q.:.s ; w.H.-.9 n.3 | * ' & ",
"m g ~ > 3 3 0 m.< ..b.F.5.1.5+|.X.b  .0.0.].=+e I.++3 n.k.< ] -+-+c.{+D.y.B.^.-.d S i * * / + + ",
"1 ! > M  .r H c.y.w.[ 8 G.F.x.|.{.3 3 P.9.3 0 7 m.j.J J K.m.I - A.q.^.w.5.H.:.n.M = 4 i h 2 2 6+",
", * | F = P.0 q.<.Y j ;+F. +z.b t ~ = = = = = P.0 7 q I ] A.B.Z.c 4.7+'.- -+V.O ]+O ] V.J M.*+k ",
"+ , , 1 * 1 i ~ C.l c.:.^.'.8+b t ~ m % % | 1 i i i O.= P.7 L V.c /.9+0+c A.6.] Q -+U.L 8.I.I.z ",
"+ * * * f ~ > r $.` =..+x.+.y.d.T T $ ~ g { m m ~ = = P.7 L -+Q !+w }+`.i.4.J 0 3 C.% * 1 * * , ",
"* 1 i f { g $ } $.b ` w.%+K 0 7 y g t g ~ g m { 4 9.I.L e 7 ]._+3 3 C.0 a+A.5.`.V.e O.! * + + + ",
", ! i # # g y $ $ } ^.%+z.3 = = 0 % % g g ~ > 3 7 u P.P.3 P.= 3 > > # 4 0 n.m.V ]+|+V.n ) @ _ + ",
"* * f m m m ~ g M -+b+$+7.> % 4 4 u % % C.l S P.{ 4 = > % 4 4 = 4 % % % 4 w 3 _+L /+A J p n i _ ",
"! f f * i ! f > U.v.F.Z.= % | F i u O.= { # m m # ! f i % 4 % > % f ! 1 ! i P.# { _+<+I.z &+z h ",
"* + * * 1 1 4 N 4.u.c W.{ f | = i f = ! ! | * f # f i ! | | | ! f f 1 | 1 ! i = f i { = F 2 F 2 ",
"+ + * * * | k T.1.c -+= i f 1 i 1 + | i * * 1 * + f | | 1 1 1 | 1 f 1 1 1 1 * | f | @ | | ' ' ' ",
"+ + + + _ E Y.O Z.c+k i i * + 1 + * * i i * * * * + * | 1 1 | i * 1 1 1 * 1 * , 1 | ' / + * * / "};
