/* XPM */
static char * logo_32_xpm[] = {
"32 32 211 2",
"  	c None",
". 	c #000475",
"+ 	c #07008D",
"@ 	c #0003A9",
"# 	c #00017A",
"$ 	c #00027C",
"% 	c #0028AC",
"& 	c #0B43CF",
"* 	c #110098",
"= 	c #000082",
"- 	c #00088E",
"; 	c #0F0290",
"> 	c #12007C",
", 	c #010084",
"' 	c #00039E",
") 	c #001AA8",
"! 	c #005DD8",
"~ 	c #13068A",
"{ 	c #0006A1",
"] 	c #0A008F",
"^ 	c #05047E",
"/ 	c #0001A7",
"( 	c #0011AD",
"_ 	c #040185",
": 	c #060C9C",
"< 	c #006DD3",
"[ 	c #0012B8",
"} 	c #00119B",
"| 	c #0016A9",
"1 	c #000495",
"2 	c #0000B0",
"3 	c #00078D",
"4 	c #010C93",
"5 	c #00099A",
"6 	c #0053C7",
"7 	c #0B39C6",
"8 	c #00029D",
"9 	c #140BAF",
"0 	c #02008C",
"a 	c #1206B6",
"b 	c #001899",
"c 	c #0029A5",
"d 	c #001ABA",
"e 	c #1667D5",
"f 	c #0027C4",
"g 	c #001BB3",
"h 	c #002CB9",
"i 	c #0027BB",
"j 	c #0B30AE",
"k 	c #0643B8",
"l 	c #0040BC",
"m 	c #0032BD",
"n 	c #0012A5",
"o 	c #0004AA",
"p 	c #000BB2",
"q 	c #000ABB",
"r 	c #006BD8",
"s 	c #0054CF",
"t 	c #0065DF",
"u 	c #0F59CF",
"v 	c #0032CD",
"w 	c #0314BA",
"x 	c #000885",
"y 	c #1B69D0",
"z 	c #1372D9",
"A 	c #0030D3",
"B 	c #0017CA",
"C 	c #0011C1",
"D 	c #0006C3",
"E 	c #0700BB",
"F 	c #0E12CC",
"G 	c #0D22CC",
"H 	c #003DD7",
"I 	c #1967DC",
"J 	c #68C5E5",
"K 	c #4ECBE2",
"L 	c #0072DE",
"M 	c #004FD8",
"N 	c #000CA9",
"O 	c #0B0096",
"P 	c #1219B6",
"Q 	c #0078DE",
"R 	c #066FD6",
"S 	c #0019C3",
"T 	c #001CC6",
"U 	c #001FC8",
"V 	c #0502B3",
"W 	c #1792DD",
"X 	c #96D9E3",
"Y 	c #068CDE",
"Z 	c #0050D2",
"` 	c #0046C9",
" .	c #0035C1",
"..	c #0022B1",
"+.	c #001394",
"@.	c #0010A3",
"#.	c #0D0E9E",
"$.	c #014CCF",
"%.	c #0041CC",
"&.	c #0718AC",
"*.	c #0121C2",
"=.	c #0241D5",
"-.	c #058AE3",
";.	c #51C9E6",
">.	c #85D4E9",
",.	c #3FA1DA",
"'.	c #00A3E6",
").	c #1172D2",
"!.	c #000A91",
"~.	c #0022AA",
"{.	c #0053D5",
"].	c #144FD4",
"^.	c #002BD1",
"/.	c #000FBF",
"(.	c #0027CD",
"_.	c #0958DB",
":.	c #05B5E4",
"<.	c #6DD3E5",
"[.	c #0079D8",
"}.	c #000E8B",
"|.	c #082DD4",
"1.	c #0030C3",
"2.	c #1582D5",
"3.	c #56D2E8",
"4.	c #1680E0",
"5.	c #0458C5",
"6.	c #0035B2",
"7.	c #004BDE",
"8.	c #0437CC",
"9.	c #0016D2",
"0.	c #002BC9",
"a.	c #042DBB",
"b.	c #0065D0",
"c.	c #0084DC",
"d.	c #26B0E0",
"e.	c #1ABAE8",
"f.	c #0085E4",
"g.	c #003CC6",
"h.	c #0034B8",
"i.	c #0040DB",
"j.	c #0122BA",
"k.	c #0843C0",
"l.	c #007BDA",
"m.	c #25C5E7",
"n.	c #009AE5",
"o.	c #001FB7",
"p.	c #074DC9",
"q.	c #001DA4",
"r.	c #0616B3",
"s.	c #1982DB",
"t.	c #21AAE1",
"u.	c #0036BB",
"v.	c #0939B7",
"w.	c #003BDD",
"x.	c #000DB4",
"y.	c #002ABF",
"z.	c #004AC5",
"A.	c #3897DD",
"B.	c #0AA1DE",
"C.	c #0A63DF",
"D.	c #000798",
"E.	c #004FDF",
"F.	c #00149E",
"G.	c #002AAF",
"H.	c #001DBE",
"I.	c #001FC0",
"J.	c #091AA4",
"K.	c #000FC9",
"L.	c #004FC9",
"M.	c #005ECB",
"N.	c #0036D2",
"O.	c #140099",
"P.	c #0033D6",
"Q.	c #0026D4",
"R.	c #0047C2",
"S.	c #1628B1",
"T.	c #003CB0",
"U.	c #000CC7",
"V.	c #191AC0",
"W.	c #012DB3",
"X.	c #0042CB",
"Y.	c #004AB7",
"Z.	c #1715CF",
"`.	c #0009C5",
" +	c #1101BD",
".+	c #0B24B5",
"++	c #0C65CC",
"@+	c #001CCF",
"#+	c #00049F",
"$+	c #0034C8",
"%+	c #003EC1",
"&+	c #0025DD",
"*+	c #0013B0",
"=+	c #0028C6",
"-+	c #01037D",
";+	c #0B58D5",
">+	c #009CDF",
",+	c #0061D5",
"'+	c #005ADC",
")+	c #1CBEE6",
"!+	c #3386D3",
"~+	c #143AD7",
"{+	c #0E3ABF",
"]+	c #0017A2",
"^+	c #1A10AA",
"/+	c #1130B7",
"(+	c #125BC9",
"_+	c #0A25A5",
":+	c #001FAE",
"<+	c #0E1C9E",
"[+	c #0B0388",
". . . . . . + @ + # . . . # # # . . . . # $ % & * = $ $ - ; > # ",
". . . . . . , @ ' # . . # . # # . . . # # = ) ! @ , = ~ { ] = . ",
". . . . . . ^ / ( = . . = $ $ # # > # > = _ : < [ ; } | 1 = = , ",
". . . . . . $ * 2 _ = = > > > > = 3 - 4 ~ 4 5 6 7 8 ) 9 0 3 1 - ",
". . . . . . # + a + ~ + 4 b c c c b } } + 1 ' d e f d g h i ( ' ",
". . . . ^ ^ _ 3 [ @ j k l m g n @ @ @ o p o 2 q r s t u v w q @ ",
". > x > 0 3 8 a y z A B B C D E D D D D F G H I J K L M A d p N ",
", + O 8 O 8 ( P Q R d [ [ S T U S q V a V S & W X K Y Z ` s  ...",
", 0 3 3 +.} @.#.Q $.%.&.8 * ' / @ p [ *.v =.-.;.>.,.'.).d N n | ",
"# # 1 4 ~ !.} ~.{.].^.7 ' 1 + ] ' @ [ /.(._.:.<.<.Y [.R 6 % 1 3 ",
"^ }.- 3 1 3 }.i _.M /.|.1.@.] ' N ( q [ $.2.:.3.;.4.M u ` 5.6.} ",
"^ # 3 1 } , b g 7.8.g 9.0.a.@.{ @ 2 [ 1.b.c.d.K e.f.A s g.h.6.j ",
". . = 8 3 = ~.( i.B h D B f j.p p N i k.y l.e.m.n.-.9.o.p.% ~...",
". > = 3 ] - q.r.8./.h p B q *.j.@ ( 1.k 5.s.t.e.f.f.B q u.v.#.) ",
"# x # = 8 | } p w.C f x.q D /.f y.d h u.z.[.A.B.C.L U q @.h.q.5 ",
"= # = $ D.i 1 p ^.C *.q 2 D S f f y.i y.Z ).Y Y E.t (.o 5 F.G.- ",
", # = = ' H.5 9 U E B S N E /.S I.f *.j.z.y l.R H E.(.@ @.4 | J.",
"x ^ # $ @.x.p p U V C *.@ q K.C I.S S v L.M.< ! A N.(.2 N O.} q.",
"3 4 +.x @.5 C S U V D S H./.K.K.B T d m k L.u %.P.Q.f p N + ~ } ",
"1 !.q.c b 1 q d U C D p S /.F 9.C S h h k.R.Z v A B (.p 8 } 1 ) ",
"/ / N S.T.q.[ 0.S C U./.^.D D F V.[ u.u.W.u.X.0.P.B *.p ' ) ) 5 ",
"3 8 q S k Y.f 8.f C E B Z.`. +p g f .+v.1. .7 0.G B B r.S...O.; ",
"= 3 N q S s ++M {.|.B @+F V #+r.N o.$+W.%+i y.8.B S v X.o.r.' - ",
"= 3 } &.S |.[.[.t =.Q.&+9.*+1 1 ( d 1.X.%+ .f H *.$+Z =+p ' 3 -+",
"O #+o r.d $+;+n.>+I A C r.d o.i h i h 7 s 5.y.& ,+! (.g - x x x ",
"= ] ' N o.8.'+-.)+B./.@ ' @.@.&.h  .z.5.R c.).Y r p.R.z.l h.G.% ",
"# x 3 0 D.@ /.^.4.s.q o #+D.1 ] 5 @.&.h k.< !+,.A.++R.v.% ~.F.b ",
"$ 0 ] 8 2 q F ~+A.{+d o o / #+D.5 ]+h h a.h ^+/+b.[.6 W.1 _ ^ # ",
"= 0 8 #+o 2 7 d.(+@.' ' 1 #+N *+&.| N @.@.@.1 1 | i z.M.k _+3 ^ ",
"3 0 ] ] 8 :+>+>+| + } ]+@.' #+#+] 1 1 1 1 1 1 1 1 @.@...G.~.<++.",
"= # [+[+% [.W l 5 + 1 3 } 3 = 3 ] 0 3 3 0 ] 3 3 [+0 ; - 4 } - 4 ",
"# # = - Y.[.5.J.3 = 3 # [+!.= = # = 3 0 0 = 0 = 0 3 3 + _ = x ^ "};
