/* XPM */
static char * logo_16_xpm[] = {
"16 16 242 2",
"  	c None",
". 	c #050572",
"+ 	c #040473",
"@ 	c #000298",
"# 	c #020286",
"$ 	c #040474",
"% 	c #030278",
"& 	c #020179",
"* 	c #040475",
"= 	c #040276",
"- 	c #02017B",
"; 	c #003ABF",
"> 	c #010191",
", 	c #020482",
"' 	c #000694",
") 	c #02007B",
"! 	c #02018E",
"~ 	c #00069B",
"{ 	c #02017C",
"] 	c #03007F",
"^ 	c #02007C",
"/ 	c #02037F",
"( 	c #010586",
"_ 	c #00068A",
": 	c #0436B3",
"< 	c #0214AB",
"[ 	c #0012A6",
"} 	c #00038E",
"| 	c #00058B",
"1 	c #02027C",
"2 	c #020185",
"3 	c #000AAA",
"4 	c #05209E",
"5 	c #0226A7",
"6 	c #0020AA",
"7 	c #0014A6",
"8 	c #0008A2",
"9 	c #0004A0",
"0 	c #000AB0",
"a 	c #1154CF",
"b 	c #033CC6",
"c 	c #0025BF",
"d 	c #0008A9",
"e 	c #020180",
"f 	c #01018A",
"g 	c #000192",
"h 	c #000FAE",
"i 	c #1470D7",
"j 	c #011DC2",
"k 	c #0014C2",
"l 	c #0011C1",
"m 	c #000BBF",
"n 	c #0009BC",
"o 	c #0016C5",
"p 	c #085EDA",
"q 	c #6CCCE4",
"r 	c #0B68D9",
"s 	c #003ACA",
"t 	c #001DB5",
"u 	c #020182",
"v 	c #000A91",
"w 	c #010F94",
"x 	c #0014A0",
"y 	c #055BD8",
"z 	c #0030C5",
"A 	c #00029C",
"B 	c #000198",
"C 	c #0005A9",
"D 	c #0014BC",
"E 	c #003CD0",
"F 	c #36B7E4",
"G 	c #4CB6E4",
"H 	c #057DD8",
"I 	c #0028B6",
"J 	c #000D9B",
"K 	c #020881",
"L 	c #00048E",
"M 	c #000690",
"N 	c #011AA4",
"O 	c #0148D6",
"P 	c #001BC5",
"Q 	c #0027BA",
"R 	c #00089B",
"S 	c #000AAC",
"T 	c #0018BB",
"U 	c #026DD3",
"V 	c #35C2E6",
"W 	c #25A1E4",
"X 	c #004AD1",
"Y 	c #0043C2",
"Z 	c #002AAA",
"` 	c #030277",
" .	c #01028B",
"..	c #00048C",
"+.	c #0018AB",
"@.	c #0029CE",
"#.	c #001ABA",
"$.	c #0017C6",
"%.	c #000EAE",
"&.	c #0036BE",
"*.	c #006CCF",
"=.	c #23B8E4",
"-.	c #048CE3",
";.	c #001AC6",
">.	c #0036B7",
",.	c #001CAA",
"'.	c #02027E",
").	c #02017E",
"!.	c #000FA5",
"~.	c #000DA4",
"{.	c #001FC8",
"].	c #0019BE",
"^.	c #0005BA",
"/.	c #001CC0",
"(.	c #0025BE",
"_.	c #002EBC",
":.	c #0061D0",
"<.	c #0696E0",
"[.	c #0062DE",
"}.	c #0016C0",
"|.	c #001AA5",
"1.	c #00189F",
"2.	c #020784",
"3.	c #02017F",
"4.	c #000FAC",
"5.	c #000EAD",
"6.	c #0014C1",
"7.	c #0016C4",
"8.	c #0008B4",
"9.	c #0013C4",
"0.	c #0021C4",
"a.	c #0024C3",
"b.	c #0058CA",
"c.	c #006CD8",
"d.	c #003ED8",
"e.	c #0015BB",
"f.	c #000A9E",
"g.	c #0016A1",
"h.	c #001897",
"i.	c #000C9C",
"j.	c #0014BF",
"k.	c #0014C0",
"l.	c #000EBE",
"m.	c #0013BF",
"n.	c #0010CA",
"o.	c #002ABC",
"p.	c #0046C2",
"q.	c #0048CF",
"r.	c #0028D2",
"s.	c #000499",
"t.	c #000F98",
"u.	c #00019C",
"v.	c #0016B5",
"w.	c #0038B0",
"x.	c #0026C3",
"y.	c #001AC4",
"z.	c #000EC3",
"A.	c #0014CA",
"B.	c #0009BF",
"C.	c #001DBD",
"D.	c #0031B9",
"E.	c #0032BD",
"F.	c #0035C9",
"G.	c #001FCC",
"H.	c #0017BC",
"I.	c #001CAE",
"J.	c #000D9C",
"K.	c #010388",
"L.	c #0010AB",
"M.	c #002DCC",
"N.	c #0268D4",
"O.	c #004AD8",
"P.	c #0021D3",
"Q.	c #000FC1",
"R.	c #00099F",
"S.	c #0017B4",
"T.	c #0035C2",
"U.	c #0032C8",
"V.	c #0023C8",
"W.	c #003BCA",
"X.	c #0010AD",
"Y.	c #01068E",
"Z.	c #000292",
"`.	c #000DAA",
" +	c #002AC2",
".+	c #0475DE",
"++	c #1A98E0",
"@+	c #001CB0",
"#+	c #002BBA",
"$+	c #0042C6",
"%+	c #0367D0",
"&+	c #0C5CD0",
"*+	c #065ED3",
"=+	c #0034BF",
"-+	c #001FA0",
";+	c #011998",
">+	c #010181",
",+	c #000190",
"'+	c #0005AC",
")+	c #0121CC",
"!+	c #2274D4",
"~+	c #000BB3",
"{+	c #0002A1",
"]+	c #000396",
"^+	c #000E9E",
"/+	c #0026B5",
"(+	c #0343C3",
"_+	c #205BC4",
":+	c #0F78D6",
"<+	c #0140BF",
"[+	c #00159D",
"}+	c #010C8D",
"|+	c #00018A",
"1+	c #000196",
"2+	c #0009A9",
"3+	c #1489D8",
"4+	c #0220A9",
"5+	c #000E9F",
"6+	c #00079E",
"7+	c #000AA5",
"8+	c #000D9E",
"9+	c #00089C",
"0+	c #000294",
"a+	c #0013A6",
"b+	c #0036B9",
"c+	c #002EAE",
"d+	c #010F8F",
"e+	c #010587",
"f+	c #0059C4",
"g+	c #0052C1",
"h+	c #00028C",
"i+	c #01058B",
"j+	c #01078E",
"k+	c #010186",
"l+	c #000188",
"m+	c #00028A",
"n+	c #00028B",
"o+	c #000189",
"p+	c #000288",
"q+	c #00048D",
"r+	c #00068D",
"s+	c #010A8A",
". . + @ # $ % & * = - ; > , ' ) ",
". . . ! ~ { ] ^ / ( _ : < [ } | ",
"% % 1 2 3 4 5 6 7 8 9 0 a b c d ",
"e f g h i j k l m n o p q r s t ",
"u v w x y z A B C D E F G H I J ",
"K L M N O P Q R S T U V W X Y Z ",
"`  ...+.@.#.$.#.%.&.*.=.-.;.>.,.",
"'.).!.~.{.].^./.(._.:.<.[.}.|.1.",
"2.3.4.5.6.7.8.9.0.a.b.c.d.e.f.g.",
"M h.i.j.k.l.m.n.k o.p.q.r.].s.t.",
"u.v.w.x.y.z.A.B.C.D.E.F.G.H.I.J.",
"K.L.M.N.O.P.Q.R.S.T.&.U.V.W.X.Y.",
"Z.`. +.+++}.L.@+#+$+%+&+*+=+-+;+",
">+,+'+)+!+~+{+]+^+/+(+_+:+<+[+}+",
"|+1+2+3+4+5+6+7+8+9+9+0+a+b+c+d+",
").e+f+g+h+i+j+k+l+m+n+o+p+q+r+s+"};
