/* XPM */
static char * move_xpm[] = {
"32 32 104 2",
"  	c None",
". 	c #000000",
"+ 	c #656565",
"@ 	c #A0A0A0",
"# 	c #BABABA",
"$ 	c #B9B9B9",
"% 	c #AFAFAF",
"& 	c #929292",
"* 	c #2D2D2D",
"= 	c #E3E3E3",
"- 	c #F0F0F0",
"; 	c #E9E9E9",
"> 	c #D6D6D6",
", 	c #363636",
"' 	c #E6E6E6",
") 	c #D3D3D3",
"! 	c #CFCFCF",
"~ 	c #D0D0D0",
"{ 	c #D7D7D7",
"] 	c #DFDFDF",
"^ 	c #3A3A3A",
"/ 	c #C8C8C8",
"( 	c #828282",
"_ 	c #868686",
": 	c #A2A2A2",
"< 	c #C1C1C1",
"[ 	c #9B9B9B",
"} 	c #9C9C9C",
"| 	c #D5D5D5",
"1 	c #DEDEDE",
"2 	c #E8E8E8",
"3 	c #A5A5A5",
"4 	c #CACACA",
"5 	c #ADADAD",
"6 	c #B6B6B6",
"7 	c #DCDCDC",
"8 	c #CCCCCC",
"9 	c #747474",
"0 	c #1D1D1D",
"a 	c #BEBEBE",
"b 	c #838383",
"c 	c #7E7E7E",
"d 	c #CECECE",
"e 	c #8F8F8F",
"f 	c #B8B8B8",
"g 	c #8E8E8E",
"h 	c #3B3B3B",
"i 	c #404040",
"j 	c #313131",
"k 	c #B3B3B3",
"l 	c #ECECEC",
"m 	c #FFFFFF",
"n 	c #EAEAEA",
"o 	c #D2D2D2",
"p 	c #A8A8A8",
"q 	c #C2C2C2",
"r 	c #4E4E4E",
"s 	c #FAFAFA",
"t 	c #B5B5B5",
"u 	c #5A5A5A",
"v 	c #CDCDCD",
"w 	c #C7C7C7",
"x 	c #E5E5E5",
"y 	c #F8F8F8",
"z 	c #E2E2E2",
"A 	c #F1F1F1",
"B 	c #BFBFBF",
"C 	c #E0E0E0",
"D 	c #C5C5C5",
"E 	c #E1E1E1",
"F 	c #676767",
"G 	c #B4B4B4",
"H 	c #ABABAB",
"I 	c #B0B0B0",
"J 	c #D8D8D8",
"K 	c #F4F4F4",
"L 	c #D4D4D4",
"M 	c #AEAEAE",
"N 	c #616161",
"O 	c #6B6B6B",
"P 	c #7B7B7B",
"Q 	c #A7A7A7",
"R 	c #B2B2B2",
"S 	c #C4C4C4",
"T 	c #4D4D4D",
"U 	c #EEEEEE",
"V 	c #EDEDED",
"W 	c #F9F9F9",
"X 	c #E4E4E4",
"Y 	c #EFEFEF",
"Z 	c #BDBDBD",
"` 	c #989898",
" .	c #919191",
"..	c #545454",
"+.	c #B1B1B1",
"@.	c #DDDDDD",
"#.	c #8A8A8A",
"$.	c #9D9D9D",
"%.	c #F2F2F2",
"&.	c #3D3D3D",
"*.	c #F5F5F5",
"=.	c #FCFCFC",
"-.	c #0D0D0D",
";.	c #282828",
"                                                                ",
"                                                                ",
"    . . . . . . . . . . . . . . . . .                           ",
"    . + @ # # # # # # # # # # # $ % & *                         ",
"    . @ = - - - - - - - - - - - - ; > , .                       ",
"    . # ' ) ! ! ~ { ; ] > > ; > > ] ; ^ .                       ",
"    . # / & ( ( _ : ; < [ } ; } [ < ; ^ .                       ",
"    . # ' ) ! ! ~ { ; ] > > ; | | 1 2 ^ .                       ",
"    . # ! 3 : { 4 5 6 / 7 8 9 9 9 9 9 0 . . . . . . . . .       ",
"    . # a b c d # e } f f g * h i i i i i i i i i i i i h j     ",
"    . # - ; ; ; ; ; ; ; 9 * k l m m m m m m m m m m m m n @ .   ",
"    . # o p } } q > } [ r h l s m m m m m m m m m m m m s f .   ",
"    . # 7 a 6 6 ! 7 6 t u i m 1 v w w 4 x y z d = A w 7 A B .   ",
"    . # C w D D { E 4 v F i m d G H H I J K L t | n H 4 n B .   ",
"    . # M N u u : 4 O P i i m m m m m m m m m m m m m m m B .   ",
"    . # C w D D { E 4 8 F i m 5 g Q m R : t L K n 4 H n m B .   ",
"    . # 7 a 6 6 ! 7 6 G u i m / G S m 8 < d z y A 7 w A m B .   ",
"    . $ o p } } q > } [ T i m U ' = = y A = = V y W x X A B .   ",
"    . f Y ; ; ; ; ; ; 2 9 i m Z [ e e = w e e f z x `  .w B .   ",
"    . } 7 ; ; ; ; ; ; 2 9 i m U ' = = y A = = V y W x X A B .   ",
"    . ..O 9 9 9 9 9 9 9 ^ i m / G +.+.l @.a w 7 A y z d = B .   ",
"      . . . . . . . . . . i m 5 g #.#.z 8 $.H 4 n K L t | B .   ",
"                        . i m m m m m m m m m m m m m m m B .   ",
"                        . i m d G H H n | H H 4 n l R 5 | B .   ",
"                        . i m 1 v w w A = w w 7 A %.8 / = B .   ",
"                        . &.*.=.m m m m m m m m m m m m s f .   ",
"                        . , > *.m m m m m m m m m m m m n @ .   ",
"                        . -., &.i i i i i i i i i i i i h ;..   ",
"                          . . . . . . . . . . . . . . . . . .   ",
"                                                                ",
"                                                                ",
"                                                                "};
