/* XPM */
static char * desk_setup_xpm[] = {
"95 24 2 1",
" 	c None",
".	c #000000",
"                                                                                               ",
"                                                                                               ",
"                                                                                               ",
"                                                                                               ",
"                                                                                               ",
"                                                                                               ",
"                                                                                               ",
"                                    .                                                          ",
"            .....                   .           ....           .                               ",
"            .    .                  .          ..   .          .                               ",
"            .     .   ....    ....  .   .      .        ....  ..... .    .  . ...              ",
"            .     .  .   ..  .      .  .       ..      .   ..  .    .    .  .   ..             ",
"            .     .  .    .  .      . .         ....   .    .  .    .    .  .    .             ",
"            .     .  ......   ...   ..             ..  ......  .    .    .  .    .             ",
"            .    ..  .           .  . .             .  .       .    .    .  .    .             ",
"            .   ..   .    .      .  .  .       .    .  .    .  .    .   ..  .    .             ",
"            .....     ....   ....   .   .       ....    ....    ...  ... .  .....              ",
"                                                                            .                  ",
"                                                                            .                  ",
"                                                                                               ",
"                                                                                               ",
"                                                                                               ",
"                                                                                               ",
"                                                                                               "};
