/* XPM */
static char * desk_xpm[] = {
"95 24 2 1",
" 	c None",
".	c #000000",
"                                                                                               ",
"                                                                                               ",
"                                                                                               ",
"                                                                                               ",
"                                                                                               ",
"                                                                                               ",
"                                                                                               ",
"                                                      .                                        ",
"                              .....                   .                                        ",
"                              .    .                  .                                        ",
"                              .     .   ....    ....  .   .                                    ",
"                              .     .  .   ..  .      .  .                                     ",
"                              .     .  .    .  .      . .                                      ",
"                              .     .  ......   ...   ..                                       ",
"                              .    ..  .           .  . .                                      ",
"                              .   ..   .    .      .  .  .                                     ",
"                              .....     ....   ....   .   .                                    ",
"                                                                                               ",
"                                                                                               ",
"                                                                                               ",
"                                                                                               ",
"                                                                                               ",
"                                                                                               ",
"                                                                                               "};
