/* XPM */
static char * io_setup_xpm[] = {
"128 128 2 1",
" 	c None",
".	c #000000",
"                                                                                                                                ",
"                                                                                                                                ",
"                                                                                                                                ",
"                                                                                                                                ",
"                                                                                                                                ",
"                                                                                                                                ",
"                                                                                                                                ",
"                                                                                                                                ",
"                                                                                                                                ",
"                                                                                                                                ",
"                                                                                                                                ",
"                                                                                                                                ",
"                                                                                                                                ",
"                                                                                                                                ",
"                                                                                                                                ",
"                                                                                                                                ",
"                                                                                                                                ",
"                                                                                                                                ",
"                                                                                                                                ",
"                                                                                                                                ",
"                                                                                                                                ",
"                                                                                                                                ",
"                                                                                                                                ",
"                                                                                                                                ",
"                                                                                                                                ",
"                                                                                                                                ",
"                                                                                                                                ",
"                                                                                                                                ",
"                                                                                                                                ",
"                                                                                                                                ",
"                                                                                                                                ",
"                                                                                                                                ",
"                                                                                                                                ",
"                                                                                                                                ",
"                                                                                                                                ",
"                                                                                                                                ",
"                                                                                                                                ",
"                                                                                                                                ",
"                                                                                                                                ",
"                                                                                                                                ",
"                                                                                                                                ",
"                                                                                                                                ",
"                                                                                                                                ",
"                                                                                                                                ",
"                             ....     .....             .....               .                                                   ",
"                             ....     .....             .....               .                                                   ",
"                             ....     .....             .....               .                                                   ",
"                             ....     .....             .....               .                                                   ",
"                             ....     ......           .......              .                                                   ",
"                             ...      ......           .......              .                                                   ",
"                             ...      ......           .......              .                                                   ",
"                             ...      ......           .......              .                                                   ",
"                             ...     ........         ........              ..                                                  ",
"                              .      .      .         ...    .              ..                                                  ",
"                              .      .      .         ...    .              ..                                                  ",
"                              .      .      .         ...    .              ..                                                  ",
"                              .     ..      ..        ...    .     .....   ......  .     ..  .. ....                            ",
"                              .     .        .        ..           .....   ......  .     ..  .. ....                            ",
"                              .     .        .        ..           .....   ......  .     ..  .. ....                            ",
"                              .     .        .        ..           .....   ......  .     ..  .. ....                            ",
"                              .     .        .        ...        ........  ......  .     ..  .. .....                           ",
"                              .     .        .        ...        ..   ...   ..     .     ..  ..    ..                           ",
"                              .     .        .        ...        ..   ...   ..     .     ..  ..    ..                           ",
"                              .     .        .        ...        ..   ...   ..     .     ..  ..    ..                           ",
"                              .     .        .        ......     ..   ...   ..     .     ..  ..    ...                          ",
"                              .     .        .         .....     ..    ..   .      .     ..  ..     ..                          ",
"                              .     .        .         .....     ..    ..   .      .     ..  ..     ..                          ",
"                              .     .        .         .....     ..    ..   .      .     ..  ..     ..                          ",
"                              .     .        .         ......    ..    ..   .      .     ..  ..     ..                          ",
"                              .     .        .          .....    ..     .   .      .     ..  ..     ..                          ",
"                              .     .        .          .....    ..     .   .      .     ..  ..     ..                          ",
"                              .     .        .          .....    ..     .   .      .     ..  ..     ..                          ",
"                              .     .        .          ......   ........   .      .     ..  ..     ..                          ",
"                              .     .        .              ..   ........   .      .     ..  ..     ..                          ",
"                              .     .        .              ..   ........   .      .     ..  ..     ..                          ",
"                              .     .        .              ..   ........   .      .     ..  ..     ..                          ",
"                              .     .        .              ..   ........   .      .     ..  ..     ..                          ",
"                              .     .        .               .   ..         .      .     ..  ..     ..                          ",
"                              .     .        .               .   ..         .      .     ..  ..     ..                          ",
"                              .     .        .               .   ..         .      .     ..  ..     ..                          ",
"                              .     ..      ..               .   ..         .      .     ..  ..     ..                          ",
"                              .     ..      ..               .   ..         .      .     ..  ..     ..                          ",
"                              .     ..      ..               .   ..         .      .     ..  ..     ..                          ",
"                              .     ..      ..               .   ..         .      .     ..  ..     ..                          ",
"                              ..    ..      ..         .     .   ..     .   .      .    ...  ..     ..                          ",
"                              ..     .      .          .     .   ..     .   .      .    ...  ..     .                           ",
"                              ..     .      .          .     .   ..     .   .      .    ...  ..     .                           ",
"                              ..     .      .          .     .   ..     .   .      .    ...  ..     .                           ",
"                             ....    ........          .......   ........   .....  ........  ........                           ",
"                             ....     ......            .....      .....     ....   .... ..  .......                            ",
"                             ....     ......            .....      .....     ....   .... ..  .......                            ",
"                             ....     ......            .....      .....     ....   .... ..  .......                            ",
"                             ....     ......            .....      .....     ....   .... ..  .......                            ",
"                                                                                             ..                                 ",
"                                                                                             ..                                 ",
"                                                                                             ..                                 ",
"                                                                                             ..                                 ",
"                                                                                             ..                                 ",
"                                                                                             ..                                 ",
"                                                                                             ..                                 ",
"                                                                                             ..                                 ",
"                                                                                              .                                 ",
"                                                                                              .                                 ",
"                                                                                              .                                 ",
"                                                                                              .                                 ",
"                                                                                                                                ",
"                                                                                                                                ",
"                                                                                                                                ",
"                                                                                                                                ",
"                                                                                                                                ",
"                                                                                                                                ",
"                                                                                                                                ",
"                                                                                                                                ",
"                                                                                                                                ",
"                                                                                                                                ",
"                                                                                                                                ",
"                                                                                                                                ",
"                                                                                                                                ",
"                                                                                                                                ",
"                                                                                                                                ",
"                                                                                                                                ",
"                                                                                                                                ",
"                                                                                                                                ",
"                                                                                                                                ",
"                                                                                                                                ",
"                                                                                                                                ",
"                                                                                                                                ",
"                                                                                                                                "};
